<svg width="215" height="99" viewBox="0 0 215 99" fill="none" xmlns="http://www.w3.org/2000/svg">
<path d="M1.56002 1.00399C-0.871036 7.09258 3.00552 11.7576 9.02841 13.2469C11.5909 13.882 14.0438 13.5754 16.6063 13.7944C24.8193 14.5172 21.0085 14.6267 29.2434 21.0438C32.1125 23.2778 33.3171 24.5262 37.1717 25.008C41.2673 25.5117 43.0194 24.8328 47.334 26.563C52.0209 28.4684 52.656 30.5052 56.3792 33.2648C59.0731 35.2578 60.7815 34.9074 63.7382 35.893C76.1782 39.9886 71.5132 42.5291 79.3539 46.9532C83.537 49.3185 88.3991 47.5007 92.867 48.1139C99.6783 49.0557 103.445 53.655 109.249 56.6555C112.863 58.539 115.25 58.32 119.149 58.8018C126.091 59.656 128.238 65.3284 133.976 67.9566C138.29 69.9496 143.196 69.4678 147.708 70.5629C155.089 72.3369 157.476 78.0532 163.28 81.5355C166.324 83.3752 169.544 83.3971 172.939 83.8571C182.115 85.0835 188.072 90.7998 196.417 94.1288C201.783 96.2752 207.543 97.3264 213.215 98.4215C214.945 98.75 215.668 96.1219 213.938 95.7714C207.433 94.5231 200.71 93.3184 194.687 90.4493C190.46 88.4344 186.89 85.1492 182.619 83.2876C175.786 80.309 167.638 81.8421 161.725 76.5639C158.965 74.089 157.213 71.2199 153.775 69.5335C150.358 67.869 146.438 67.6938 142.758 67.1244C138.838 66.533 134.48 65.7227 131.37 62.9631C129.946 61.6928 129.136 59.3275 127.581 58.1667C123.682 55.2319 122.215 56.8088 117.331 56.2613C110.804 55.5166 106.862 51.3116 101.518 48.2016C98.9556 46.7123 96.3932 45.5515 93.4365 45.1354C89.6256 44.6098 86.6251 45.7048 82.7705 44.3469C78.1493 42.7043 77.8207 40.4922 74.7326 37.2727C69.104 31.4469 61.6794 33.8561 55.4594 28.4903C53.1379 26.4754 51.78 24.0881 48.8233 22.8616C40.7855 19.5107 39.2524 24.8109 29.7253 16.9264C27.5351 15.1085 26.6371 13.3126 23.8119 12.2176C19.0374 10.3559 0.0269488 12.1518 4.18822 1.74863C4.86716 0.0841241 2.21706 -0.616713 1.56002 1.00399Z" fill="#FD5234"/>
</svg>
