<svg width="20" height="20" viewBox="0 0 20 20" fill="none" xmlns="http://www.w3.org/2000/svg">
<path d="M6.4363 4.00959H4.65412C6.13927 2.72246 7.92145 2.02939 9.90165 2.02939C10.1987 2.02939 10.4957 2.02939 10.7927 2.1284C11.2878 2.22741 11.7828 1.83137 11.8818 1.23731C11.9809 0.742264 11.5848 0.247214 10.9908 0.148204C10.5947 0.0491942 10.2977 0.0491943 9.90165 0.0491943C7.52541 0.0491943 5.24818 0.940284 3.466 2.42543V1.03929C3.466 0.445234 3.06996 0.0491943 2.4759 0.0491943C1.88184 0.0491943 1.4858 0.445234 1.4858 1.03929V4.99969C1.4858 5.59375 1.88184 5.98979 2.4759 5.98979H6.4363C7.03036 5.98979 7.4264 5.59375 7.4264 4.99969C7.4264 4.40563 7.03036 4.00959 6.4363 4.00959ZM4.95115 12.4254C4.35709 12.4254 3.96105 12.8215 3.96105 13.4155V15.1977C2.67392 13.7126 1.98085 11.9304 1.98085 9.95018C1.98085 9.65316 1.98085 9.35613 2.07986 9.0591C2.17887 8.56405 1.78283 8.069 1.18877 7.96999C0.693725 7.87098 0.198676 8.26702 0.0996659 8.86108C0.000656032 9.25712 0.000656128 9.55415 0.000656128 9.95018C0.000656128 12.3264 0.891745 14.6037 2.37689 16.3858H0.990755C0.396696 16.3858 0.000656128 16.7819 0.000656128 17.3759C0.000656128 17.97 0.396696 18.366 0.990755 18.366H4.95115C5.24818 18.366 5.54521 18.168 5.74323 17.97C5.74323 17.871 5.84224 17.772 5.84224 17.673C5.84224 17.5739 5.84224 17.5739 5.84224 17.4749V17.3759V13.4155C5.94125 12.8215 5.54521 12.4254 4.95115 12.4254ZM18.8125 3.51454C19.4066 3.51454 19.8026 3.1185 19.8026 2.52444C19.8026 1.93038 19.4066 1.53434 18.8125 1.53434H14.8521C14.7531 1.53434 14.7531 1.53434 14.6541 1.53434C14.5551 1.53434 14.4561 1.63335 14.3571 1.63335C14.2581 1.73236 14.1591 1.73236 14.1591 1.83137C14.1591 1.93038 14.0601 2.02939 14.0601 2.02939C14.0601 2.1284 14.0601 2.1284 14.0601 2.22741V2.32642V6.28682C14.0601 6.88088 14.4561 7.27692 15.0502 7.27692C15.6442 7.27692 16.0403 6.88088 16.0403 6.28682V4.70266C17.3274 6.0888 18.0205 7.96999 18.0205 9.95018C18.0205 10.2472 18.0205 10.5442 17.9214 10.8413C17.8224 11.3363 18.2185 11.8314 18.8125 11.9304H18.9115C19.4066 11.9304 19.8026 11.5343 19.9016 11.0393C19.9016 10.6433 20.0007 10.3462 20.0007 9.95018C20.0007 7.57395 19.1096 5.29672 17.6244 3.51454H18.8125ZM18.1195 14.4056C18.0205 14.3066 17.9214 14.2076 17.8224 14.1086C17.7234 14.0096 17.6244 14.0096 17.5254 14.0096H17.4264H17.3274H13.367C12.7729 14.0096 12.3769 14.4056 12.3769 14.9997C12.3769 15.5938 12.7729 15.9898 13.367 15.9898H15.1492C13.763 17.2769 11.8818 17.97 9.90165 17.97C9.60462 17.97 9.30759 17.97 9.01056 17.871C8.51551 17.772 8.02046 18.168 7.92145 18.7621C7.82244 19.3561 8.21848 19.7522 8.81254 19.8512C9.20858 19.8512 9.50561 19.9502 9.90165 19.9502C12.2779 19.9502 14.5551 19.0591 16.3373 17.5739V18.8611C16.3373 19.4551 16.7333 19.8512 17.3274 19.8512C17.9214 19.8512 18.3175 19.4551 18.3175 18.8611V14.9007C18.3175 14.7027 18.2185 14.5046 18.1195 14.4056Z" fill="white"/>
</svg>
