<svg width="20" height="20" viewBox="0 0 20 20" fill="none" xmlns="http://www.w3.org/2000/svg">
<path d="M4.54399 10.9091H0.907626C0.362172 10.9091 -0.00146484 11.2727 -0.00146484 11.8182V19.0909C-0.00146484 19.6364 0.362172 20 0.907626 20H4.54399C5.08944 20 5.45308 19.6364 5.45308 19.0909V11.8182C5.45308 11.2727 5.08944 10.9091 4.54399 10.9091ZM19.0894 7.27273H15.4531C14.9076 7.27273 14.544 7.63636 14.544 8.18182V19.0909C14.544 19.6364 14.9076 20 15.4531 20H19.0894C19.6349 20 19.9985 19.6364 19.9985 19.0909V8.18182C19.9985 7.63636 19.6349 7.27273 19.0894 7.27273ZM11.8167 0H8.18035C7.6349 0 7.27126 0.363636 7.27126 0.909091V19.0909C7.27126 19.6364 7.6349 20 8.18035 20H11.8167C12.3622 20 12.7258 19.6364 12.7258 19.0909V0.909091C12.7258 0.363636 12.3622 0 11.8167 0Z" fill="white"/>
</svg>
